
<svg width="2420" height="2493" viewBox="0 0 2420 2493" fill="none" xmlns="http://www.w3.org/2000/svg">
<path fill-rule="evenodd" clip-rule="evenodd" d="M2419.52 1120.46C2401.37 1839.84 1866.8 2416.86 1210 2416.86C553.201 2416.86 18.6268 1839.84 0.476323 1120.46C0.159473 1133.02 0 1145.62 0 1158.26C0 1895.12 541.735 2492.46 1210 2492.46C1878.26 2492.46 2420 1895.12 2420 1158.26C2420 1145.62 2419.84 1133.02 2419.52 1120.46Z" fill="white"/>
<path fill-rule="evenodd" clip-rule="evenodd" d="M2379.21 851.832C2361.66 1549.19 1844.91 2108.54 1210 2108.54C575.095 2108.54 58.3394 1549.19 40.7938 851.832C40.4875 864.006 40.3333 876.221 40.3333 888.477C40.3333 1602.78 564.011 2181.83 1210 2181.83C1855.99 2181.83 2379.67 1602.78 2379.67 888.477C2379.67 876.221 2379.51 864.006 2379.21 851.832Z" fill="white"/>
<path fill-rule="evenodd" clip-rule="evenodd" d="M2338.89 580.802C2321.95 1256.66 1823.01 1798.77 1210 1798.77C596.988 1798.77 98.0519 1256.66 81.1113 580.802C80.8156 592.6 80.6667 604.439 80.6667 616.317C80.6667 1308.6 586.286 1869.8 1210 1869.8C1833.71 1869.8 2339.33 1308.6 2339.33 616.317C2339.33 604.439 2339.18 592.6 2338.89 580.802Z" fill="white"/>
<path fill-rule="evenodd" clip-rule="evenodd" d="M2258.25 0.00170898C2242.52 632.343 1779.23 1139.55 1210 1139.55C640.773 1139.55 177.475 632.343 161.746 0.00170898C161.472 11.0395 161.333 22.1154 161.333 33.2275C161.333 680.933 630.837 1206 1210 1206C1789.16 1206 2258.67 680.933 2258.67 33.2275C2258.67 22.1154 2258.53 11.0395 2258.25 0.00170898Z" fill="white"/>
<path fill-rule="evenodd" clip-rule="evenodd" d="M2298.57 292.007C2282.24 945.845 1801.12 1470.29 1210 1470.29C618.881 1470.29 137.763 945.845 121.429 292.007C121.144 303.42 121 314.873 121 326.363C121 996.088 608.562 1539.01 1210 1539.01C1811.44 1539.01 2299 996.088 2299 326.363C2299 314.873 2298.86 303.42 2298.57 292.007Z" fill="white"/>
</svg>
