<svg width="60" height="60" viewBox="0 0 60 60" fill="none" xmlns="http://www.w3.org/2000/svg">
<path d="M38.3518 29.5793C40.065 29.5793 41.3805 29.304 42.2983 28.7533C43.2772 28.1415 44.2868 27.2543 45.327 26.0918L45.5105 26C45.6329 26 45.7553 26.0918 45.8776 26.2753C46 26.4589 46.0306 26.6119 45.9694 26.7342C43.8279 29.4876 42.0535 31.3537 40.6463 32.3327C39.3002 33.2505 37.8317 33.7094 36.2409 33.7094C35.0784 33.7094 33.9771 33.587 32.9369 33.3423C31.8967 33.0363 30.6119 32.608 29.0822 32.0574C27.4914 31.5067 26.1453 31.109 25.044 30.8642C23.9426 30.5583 22.7801 30.4054 21.5564 30.4054C20.088 30.4054 18.956 30.6195 18.1606 31.0478C17.4264 31.4149 16.7228 31.935 16.0497 32.608C15.4379 33.2199 14.979 33.6482 14.673 33.8929H14.5813C14.4589 33.8929 14.3059 33.8317 14.1224 33.7094C14 33.5258 13.9694 33.3728 14.0306 33.2505C17.5182 28.6004 20.9751 26.2753 24.4015 26.2753C25.8088 26.2753 27.8891 26.7954 30.6424 27.8356C32.2945 28.3862 33.6711 28.8145 34.7725 29.1205C35.935 29.4264 37.1281 29.5793 38.3518 29.5793Z" fill="url(#paint0_linear_486_10)"/>
<defs>
<linearGradient id="paint0_linear_486_10" x1="30" y1="26" x2="30" y2="33.8929" gradientUnits="userSpaceOnUse">
<stop stop-color="#5D3BF8"/>
<stop offset="1" stop-color="#4921FF" stop-opacity="0.8"/>
</linearGradient>
</defs>
</svg>
